<svg width="32" height="32" viewBox="0 0 32 32" fill="none" xmlns="http://www.w3.org/2000/svg">
<g id="Facebook" clip-path="url(#clip0_150:235)">
<path id="Vector" fill-rule="evenodd" clip-rule="evenodd" d="M17.0923 32H1.76697C1.29853 31.9998 0.849349 31.8136 0.518178 31.4823C0.187008 31.151 0.000976655 30.7018 0.000976688 30.2333V1.76666C0.000889082 1.53464 0.0465221 1.30487 0.135274 1.09048C0.224027 0.876103 0.354152 0.68132 0.518219 0.517253C0.682287 0.353185 0.87708 0.22305 1.09146 0.134298C1.30584 0.0455455 1.53561 -8.74809e-05 1.76764 1.25902e-07H30.235C30.4669 1.09373e-07 30.6966 0.0456996 30.9109 0.134491C31.1253 0.223283 31.32 0.353428 31.484 0.517487C31.648 0.681546 31.778 0.87631 31.8667 1.09065C31.9554 1.30499 32.0011 1.53469 32.001 1.76666V30.2333C32.001 30.7018 31.8149 31.151 31.4838 31.4823C31.1526 31.8136 30.7034 31.9998 30.235 32H22.0803V19.608H26.2403L26.863 14.7787H22.0803V11.6953C22.0803 10.2967 22.469 9.344 24.4736 9.344L27.031 9.34267V5.02334C26.589 4.96467 25.071 4.83333 23.3043 4.83333C19.6176 4.83333 17.093 7.084 17.093 11.2167V14.7787H12.923V19.608H17.093V32H17.0923Z" fill="#4460A0"/>
</g>
<defs>
<clipPath id="clip0_150:235">
<rect width="32" height="32" fill="white"/>
</clipPath>
</defs>
</svg>
