<svg width="32" height="32" viewBox="0 0 32 32" fill="none" xmlns="http://www.w3.org/2000/svg">
<g id="Google">
<g id="Group">
<path id="Vector" fill-rule="evenodd" clip-rule="evenodd" d="M15.6858 2.99602C13.0237 2.95802 10.3398 3.70043 8.00029 5.26353C2.65291 8.83663 0.564534 15.7222 3.02568 21.6639C5.4868 27.6055 11.8294 30.9948 18.137 29.7401C24.4446 28.4854 29.0081 22.9253 29.0081 16.494H29.0021V14.994H17.0021V18.994H20.0021H23.0021H24.8224C23.8934 22.4756 21.0645 25.223 17.3849 25.9549C12.8595 26.855 8.35571 24.4481 6.58999 20.1854C4.82425 15.9225 6.30627 11.0359 10.1427 8.47252C13.9792 5.90912 19.0598 6.41109 22.3224 9.67369L25.0529 6.94517C22.7791 4.67137 19.8507 3.35851 16.8244 3.06041C16.4461 3.02341 16.066 3.00144 15.6857 2.99644L15.6858 2.99602Z" fill="#EA4335"/>
<path id="Vector_2" fill-rule="evenodd" clip-rule="evenodd" d="M6.30463 19.4027L3.09955 21.8207C5.60763 27.6627 11.886 30.984 18.1367 29.7406C21.0259 29.1659 23.5413 27.6807 25.4277 25.6294L22.4062 23.2134C21.0826 24.5734 19.3634 25.562 17.3847 25.9556C12.8593 26.8557 8.3555 24.4486 6.58978 20.1859C6.4826 19.9272 6.38806 19.6654 6.30463 19.4027Z" fill="#34A853"/>
<path id="Vector_3" fill-rule="evenodd" clip-rule="evenodd" d="M4.49554 8.672C1.87157 12.375 1.20844 17.2767 3.02569 21.6639C3.06729 21.7643 3.15377 21.9629 3.15377 21.9629C4.50772 21.1812 5.50772 20.4945 6.45984 19.8467C6.41684 19.7323 6.37264 19.6118 6.34378 19.5248C5.3778 16.6168 5.8631 13.4945 7.52737 11.0575C5.50772 9.4945 5.50772 9.4945 4.49554 8.672Z" fill="#FBBC05"/>
<path id="Vector_4" fill-rule="evenodd" clip-rule="evenodd" d="M17.0018 14.9945V18.9945H20.0018H23.0018H24.8222C24.3927 20.6039 23.5439 22.0443 22.4061 23.2134L25.4276 25.6294C27.6595 23.2024 29.0077 19.9799 29.0077 16.4945H29.0017V14.9945H17.0017H17.0018Z" fill="#4788F4"/>
</g>
</g>
</svg>
