<svg width="20" height="20" viewBox="0 0 20 20" fill="none" xmlns="http://www.w3.org/2000/svg">
<path id="Vector" d="M14.1257 12.4306H13.233L12.9166 12.1255C14.024 10.8373 14.6907 9.16477 14.6907 7.34537C14.6907 3.28847 11.4023 0 7.34537 0C3.28847 0 0 3.28847 0 7.34537C0 11.4023 3.28847 14.6907 7.34537 14.6907C9.16477 14.6907 10.8373 14.024 12.1255 12.9166L12.4306 13.233V14.1257L18.0809 19.7647L19.7647 18.0809L14.1257 12.4306ZM7.34537 12.4306C4.53153 12.4306 2.26012 10.1592 2.26012 7.34537C2.26012 4.53153 4.53153 2.26012 7.34537 2.26012C10.1592 2.26012 12.4306 4.53153 12.4306 7.34537C12.4306 10.1592 10.1592 12.4306 7.34537 12.4306Z" fill="#56675B"/>
</svg>
